<?xml version="1.0" encoding="UTF-8"?>
<svg width="467px" height="107px" viewBox="0 0 467 107" version="1.1" xmlns="http://www.w3.org/2000/svg" xmlns:xlink="http://www.w3.org/1999/xlink">
    <!-- Generator: Sketch 60.1 (88133) - https://sketch.com -->
    <desc>Created with Sketch.</desc>
    <g id="Inicio" stroke="none" stroke-width="1" fill="none" fill-rule="evenodd">
        <g id="logo_red">
            <g>
                <path d="M466.000204,1 L466.000564,24.0420056 C452.756903,27.5693799 443.000204,39.6452903 443.000204,54 C443.000204,68.3547097 452.756903,80.4306201 466.000564,83.9579944 L466.000204,107 L0.00020362706,107 L-2.88657986e-14,83.9579526 C13.2435815,80.4305246 23.0002036,68.3546529 23.0002036,54 C23.0002036,39.6453471 13.2435815,27.5694754 -2.70894418e-14,24.0420474 L0.00020362706,1 L466.000204,1 Z" id="Combined-Shape" fill="#FB403B"></path>
                <path d="M466.000204,1 L466.000564,24.0420056 C452.756903,27.5693799 443.000204,39.6452903 443.000204,54 C443.000204,68.3547097 452.756903,80.4306201 466.000564,83.9579944 L466.000204,107 L0.00020362706,107 L-2.88657986e-14,83.9579526 C13.2435815,80.4305246 23.0002036,68.3546529 23.0002036,54 C23.0002036,39.6453471 13.2435815,27.5694754 -2.70894418e-14,24.0420474 L0.00020362706,1 L466.000204,1 Z" id="Combined-Shape" fill="#FB403B"></path>
                <path d="M79.4242036,78.928 C82.8802036,78.928 86.2162036,78.292 89.4322036,77.02 C92.6482036,75.748 95.5522036,73.816 98.1442036,71.224 L98.1442036,71.224 L89.5762036,62.584 C88.1842036,63.976 86.6002036,65.02 84.8242036,65.716 C83.0482036,66.412 81.2482036,66.76 79.4242036,66.76 C77.6002036,66.76 75.8122036,66.412 74.0602036,65.716 C72.3082036,65.02 70.7362036,63.976 69.3442036,62.584 C68.0002036,61.192 66.9682036,59.644 66.2482036,57.94 C65.5282036,56.236 65.1682036,54.424 65.1682036,52.504 C65.1682036,50.584 65.5282036,48.76 66.2482036,47.032 C66.9682036,45.304 68.0002036,43.744 69.3442036,42.352 C70.7362036,40.96 72.3082036,39.916 74.0602036,39.22 C75.8122036,38.524 77.6002036,38.176 79.4242036,38.176 C81.2482036,38.176 83.0482036,38.524 84.8242036,39.22 C86.6002036,39.916 88.1842036,40.96 89.5762036,42.352 L89.5762036,42.352 L98.1442036,33.784 C95.5522036,31.192 92.6362036,29.248 89.3962036,27.952 C86.1562036,26.656 82.8442036,26.008 79.4602036,26.008 C76.0762036,26.008 72.7522036,26.656 69.4882036,27.952 C66.2242036,29.248 63.2962036,31.192 60.7042036,33.784 C58.2082036,36.28 56.3002036,39.124 54.9802036,42.316 C53.6602036,45.508 53.0002036,48.904 53.0002036,52.504 C53.0002036,56.056 53.6602036,59.428 54.9802036,62.62 C56.3002036,65.812 58.2082036,68.68 60.7042036,71.224 C63.2962036,73.816 66.2122036,75.748 69.4522036,77.02 C72.6922036,78.292 76.0162036,78.928 79.4242036,78.928 Z M113.912204,79 L113.912204,65.68 C114.584204,65.632 115.232204,65.584 115.856204,65.536 C116.480204,65.488 117.104204,65.416 117.728204,65.32 L117.728204,65.32 L126.224204,79 L140.552204,79 L128.888204,60.136 C131.048204,58.36 132.728204,56.26 133.928204,53.836 C135.128204,51.412 135.728204,48.784 135.728204,45.952 C135.728204,43.264 135.164204,40.744 134.036204,38.392 C132.908204,36.04 131.348204,33.976 129.356204,32.2 C127.364204,30.424 125.048204,29.008 122.408204,27.952 C119.768204,26.896 116.936204,26.344 113.912204,26.296 L113.912204,26.296 L101.744204,26.296 L101.744204,79 L113.912204,79 Z M113.912204,53.44 L113.912204,38.536 C115.208204,38.584 116.444204,38.812 117.620204,39.22 C118.796204,39.628 119.828204,40.168 120.716204,40.84 C121.604204,41.512 122.300204,42.28 122.804204,43.144 C123.308204,44.008 123.560204,44.944 123.560204,45.952 C123.560204,46.96 123.308204,47.908 122.804204,48.796 C122.300204,49.684 121.604204,50.464 120.716204,51.136 C119.828204,51.808 118.796204,52.348 117.620204,52.756 C116.444204,53.164 115.208204,53.392 113.912204,53.44 L113.912204,53.44 Z M215.000204,79 L215.000204,38.176 L225.152204,38.176 L225.152204,25.936 L192.752204,25.936 L192.752204,38.176 L202.832204,38.176 L202.832204,79 L215.000204,79 Z M242.504204,79 L242.504204,26.08 L230.336204,26.08 L230.336204,79 L242.504204,79 Z M272.528204,78.928 C275.984204,78.928 279.320204,78.292 282.536204,77.02 C285.752204,75.748 288.656204,73.816 291.248204,71.224 L291.248204,71.224 L282.680204,62.584 C281.288204,63.976 279.704204,65.02 277.928204,65.716 C276.152204,66.412 274.352204,66.76 272.528204,66.76 C270.704204,66.76 268.916204,66.412 267.164204,65.716 C265.412204,65.02 263.840204,63.976 262.448204,62.584 C261.104204,61.192 260.072204,59.644 259.352204,57.94 C258.632204,56.236 258.272204,54.424 258.272204,52.504 C258.272204,50.584 258.632204,48.76 259.352204,47.032 C260.072204,45.304 261.104204,43.744 262.448204,42.352 C263.840204,40.96 265.412204,39.916 267.164204,39.22 C268.916204,38.524 270.704204,38.176 272.528204,38.176 C274.352204,38.176 276.152204,38.524 277.928204,39.22 C279.704204,39.916 281.288204,40.96 282.680204,42.352 L282.680204,42.352 L291.248204,33.784 C288.656204,31.192 285.740204,29.248 282.500204,27.952 C279.260204,26.656 275.948204,26.008 272.564204,26.008 C269.180204,26.008 265.856204,26.656 262.592204,27.952 C259.328204,29.248 256.400204,31.192 253.808204,33.784 C251.312204,36.28 249.404204,39.124 248.084204,42.316 C246.764204,45.508 246.104204,48.904 246.104204,52.504 C246.104204,56.056 246.764204,59.428 248.084204,62.62 C249.404204,65.812 251.312204,68.68 253.808204,71.224 C256.400204,73.816 259.316204,75.748 262.556204,77.02 C265.796204,78.292 269.120204,78.928 272.528204,78.928 Z M307.016204,79 L307.016204,62.368 L324.008204,79 L341.576204,79 L314.432204,52.576 L341.576204,26.08 L324.080204,26.08 L307.016204,42.784 L307.016204,26.08 L294.848204,26.08 L294.848204,79 L307.016204,79 Z M375.488204,79 L375.488204,66.832 L353.744204,66.832 L353.744204,58.48 L371.384204,58.48 L371.384204,46.312 L353.744204,46.312 L353.744204,38.32 L375.488204,38.32 L375.488204,26.152 L341.576204,26.224 L341.576204,79 L375.488204,79 Z M401.912204,79 L401.912204,38.176 L412.064204,38.176 L412.064204,25.936 L379.664204,25.936 L379.664204,38.176 L389.744204,38.176 L389.744204,79 L401.912204,79 Z" id="CRTICKET" fill="#FFFFFF" fill-rule="nonzero"></path>
                <path d="M171.500204,0 L169.500204,0 L169.500204,8 L171.500204,8 L171.500204,0 Z M171.500204,12 L169.500204,12 L169.500204,20 L171.500204,20 L171.500204,12 Z M171.500204,24 L169.500204,24 L169.500204,32 L171.500204,32 L171.500204,24 Z M171.500204,36 L169.500204,36 L169.500204,44 L171.500204,44 L171.500204,36 Z M171.500204,48 L169.500204,48 L169.500204,56 L171.500204,56 L171.500204,48 Z M171.500204,60 L169.500204,60 L169.500204,68 L171.500204,68 L171.500204,60 Z M171.500204,72 L169.500204,72 L169.500204,80 L171.500204,80 L171.500204,72 Z M171.500204,84 L169.500204,84 L169.500204,92 L171.500204,92 L171.500204,84 Z M171.500204,96 L169.500204,96 L169.500204,104 L171.500204,104 L171.500204,96 Z" id="Line-2" fill="#FFFFFF" fill-rule="nonzero"></path>
            </g>
        </g>
    </g>
</svg>